PathFileType	4	(X/Y/Z)	Run_400 02
DataRate	CameraRate	NumFrames	NumMarkers	Units	OrigDataRate	OrigDataStartFrame	OrigNumFrames
100	100	4	42	mm	100	31	128
Frame#	Time	LASI			RASI			LPSI			RPSI			RTH1			RTH2			RTH3			LTH1			LTH2			LTH3			RTB1			RTB2			RTB3			LTB1			LTB2			LTB3			RCAL			RTOE			RMT5			LCAL			LTOE			LMT5			LACR			RACR			CLAV			C7			RUA1			RUA2			RUA3			RLEL			RMEL			LUA1			LUA2			LUA3			LLEL			LMEL			RFAsuperior			RFAradius			RFAulna			LFAsuperior			LFAradius			LFAulna			
		X1	Y1	Z1	X2	Y2	Z2	X3	Y3	Z3	X4	Y4	Z4	X5	Y5	Z5	X6	Y6	Z6	X7	Y7	Z7	X8	Y8	Z8	X9	Y9	Z9	X10	Y10	Z10	X11	Y11	Z11	X12	Y12	Z12	X13	Y13	Z13	X14	Y14	Z14	X15	Y15	Z15	X16	Y16	Z16	X17	Y17	Z17	X18	Y18	Z18	X19	Y19	Z19	X20	Y20	Z20	X21	Y21	Z21	X22	Y22	Z22	X23	Y23	Z23	X24	Y24	Z24	X25	Y25	Z25	X26	Y26	Z26	X27	Y27	Z27	X28	Y28	Z28	X29	Y29	Z29	X30	Y30	Z30	X31	Y31	Z31	X32	Y32	Z32	X33	Y33	Z33	X34	Y34	Z34	X35	Y35	Z35	X36	Y36	Z36	X37	Y37	Z37	X38	Y38	Z38	X39	Y39	Z39	X40	Y40	Z40	X41	Y41	Z41	X42	Y42	Z42	

24	0.77	774.404283	1042.470964	-442.404983	776.484792	1008.074076	-184.451894	608.32496	1061.640668	-368.886082	608.199676	1055.033674	-269.504295	611.816064	854.378459	-142.202436	638.85862	732.784255	-157.615839	515.798824	659.59686	-185.278082	762.919859	858.297613	-489.212515	891.575435	783.810028	-470.913067	897.314811	659.1724390000001	-444.224753	440.167711	416.283934	-254.125977	377.346115	390.49121	-191.808179	325.627604	290.339166	-254.717196	969.459692	435.519442	-376.855418	911.1882879999999	355.032812	-436.811923	939.189494	280.935489	-369.947464	167.729719	275.470326	-270.846265	273.982231	78.46040499999999	-290.978767	224.678916	97.981312	-200.228011	812.530504	151.688924	-351.239602	1038.636496	115.425373	-344.715511	982.146797	85.82377200000001	-431.131907	719.70039	1503.811488	-480.456677	773.780517	1520.525499	-161.110029	804.042233	1445.482795	-298.54809	683.393511	1523.578865	-304.39439	747.516859	1452.443499	-63.709526	681.339438	1379.54908	-60.063445	728.150998	1335.175099	-15.850365	709.690684	1235.778259	33.358888	672.0254660000001	1210.162687	-36.235028	635.913183	1460.861319	-545.3794820000001	568.356817	1410.501098	-499.505921	526.565055	1365.831675	-560.922465	478.793163	1295.603551	-589.044502	474.003207	1288.047354	-512.026143	813.631244	1219.481412	10.60803	947.091121	1197.679729	-66.26916	933.724892	1131.137648	-42.414697	556.073865	1218.10058	-606.2514629999999	679.105693	1110.03163	-566.865931	623.774012	1069.876674	-589.796374	
25	0.78	777.804651	1045.818719	-441.024991	777.909476	1011.338957	-184.876953	611.885277	1067.342578	-369.340318	611.240626	1059.998079	-269.782806	610.6193	860.330402	-143.899157	636.70649	737.380103	-156.951932	513.369025	666.079959	-185.162871	763.911016	859.972904	-488.535272	890.8469270000001	783.182095	-468.968692	894.143829	657.0509939999999	-443.421255	431.947025	423.820904	-252.828129	368.847405	400.170422	-190.222974	314.009968	301.235825	-251.981474	975.714573	431.896565	-376.075168	927.3489489999999	344.625744	-436.235789	964.135395	275.540337	-368.408876	162.625836	297.076295	-266.546852	244.304378	87.77905699999999	-288.13393	196.56587	112.910014	-200.099047	855.289906	130.611635	-349.700387	1084.290581	127.485261	-341.784068	1033.147783	88.904118	-429.547962	720.514786	1507.262856	-480.141899	774.9610709999999	1523.747042	-161.599626	805.205903	1449.053407	-299.0729	684.648107	1526.083201	-303.758953	749.554571	1456.245477	-64.173918	684.107895	1383.613059	-59.45392	730.531973	1339.308538	-15.803536	712.725959	1239.821616	33.789895	674.522842	1214.000647	-35.580558	636.173435	1467.247711	-544.808348	569.698022	1417.311919	-497.940205	524.855241	1374.916663	-559.166491	475.180844	1305.399923	-586.453304	472.238801	1297.850837	-510.089791	816.455375	1224.633077	10.083181	948.9949789999999	1205.160531	-68.526169	937.765104	1138.397364	-43.980644	550.909646	1227.29624	-605.36663	674.743195	1117.776049	-568.653738	618.7357050000001	1077.957064	-590.565102	
26	0.79	780.742544	1047.733112	-439.925342	778.556403	1014.546191	-184.858012	614.750089	1071.430512	-369.909121	613.526753	1064.01673	-270.183338	610.856933	864.972899	-146.17894	637.223801	740.049234	-156.957692	514.3906009999999	669.6418660000001	-185.395658	763.830293	858.65373	-488.040532	889.0830099999999	779.697895	-467.290361	888.987624	651.1974290000001	-443.819472	426.786738	429.022755	-251.812907	363.361736	407.817292	-189.061714	303.581664	311.655116	-249.819149	979.751441	427.616753	-375.623952	940.006924	335.716952	-435.475608	985.319483	271.806406	-367.616565	157.738879	317.75671	-262.761587	216.573374	99.821325	-285.338424	170.303293	129.892408	-199.790144	894.530566	114.580676	-349.422913	1121.782963	142.68197	-338.082031	1077.526123	96.72688100000001	-427.943744	721.924815	1509.579616	-480.011734	775.970813	1525.888132	-162.034347	806.512466	1451.43767	-299.455257	686.321355	1527.858438	-303.349083	750.922312	1458.836618	-64.676254	685.937776	1386.236637	-59.533668	731.949623	1342.231738	-15.882529	714.866639	1242.600108	33.959844	676.381122	1216.68188	-35.207887	636.954351	1471.879472	-544.327352	571.9263110000001	1421.233845	-496.47555	524.33203	1381.507002	-557.333302	473.272449	1312.620386	-584.398899	471.868787	1304.658433	-508.636593	818.572504	1228.188846	9.590075000000001	950.170287	1210.628282	-70.58955899999999	940.821236	1143.75279	-45.361464	548.069484	1234.250099	-604.885609	672.405825	1123.58779	-570.211466	615.957971	1083.935178	-591.392894	
27	0.8	783.021522	1048.294986	-439.334745	778.8354859999999	1017.460084	-184.639561	616.901444	1073.391556	-370.904588	614.980983	1066.84287	-270.864889	612.625944	867.861176	-148.946931	640.037827	740.313249	-157.621767	518.7908	669.882798	-185.775599	762.353379	854.542106	-488.156739	886.002106	773.501447	-466.388438	880.865501	642.374216	-445.442153	424.546677	431.967459	-250.912916	360.281455	414.070916	-187.997809	294.253232	322.05947	-247.941379	982.0569379999999	424.004707	-375.300051	949.466634	329.561999	-434.870809	1001.691238	270.319541	-367.109013	151.262115	337.846773	-259.672258	192.074918	115.294321	-283.261529	147.400785	148.890402	-198.983091	927.040977	104.166961	-349.425922	1149.394296	158.470849	-334.205594	1111.907187	107.380652	-425.823458	723.944981	1510.679965	-480.170479	776.846632	1526.888918	-162.57633	807.920692	1452.497842	-299.765683	688.338803	1528.876362	-303.355069	751.573389	1460.117594	-65.319579	686.607673	1387.395205	-60.482775	732.335235	1343.968137	-16.160435	716.049384	1244.13988	33.8333	677.595792	1218.099508	-35.235764	638.401766	1474.550268	-543.988574	574.853033	1422.616742	-495.167392	524.98951	1385.406142	-555.3107240000001	473.10545	1317.074566	-583.149288	472.765029	1308.337366	-507.588852	819.900889	1230.199136	9.137926999999999	950.667519	1213.909354	-72.259348	942.747459	1147.013032	-46.479774	547.498241	1238.732777	-604.791227	672.192107	1127.37668	-571.661106	615.549659	1087.717879	-592.357809	
